<?xml version="1.0" encoding="utf-8"?>
<!-- Generator: Adobe Illustrator 21.1.0, SVG Export Plug-In . SVG Version: 6.00 Build 0)  -->
<svg version="1.1" id="Calque_1" xmlns="http://www.w3.org/2000/svg" xmlns:xlink="http://www.w3.org/1999/xlink" x="0px" y="0px"
	 viewBox="0 0 432 432" style="enable-background:new 0 0 432 432;" xml:space="preserve">
<style type="text/css">
	.st0{fill:#EFC9AF;}
	.st1{fill:#C69C6C;}
	.st2{fill:#020203;}
	.st3{fill:#603914;}
	.st4{fill:#C1292E;}
	.st5{fill:#A67D52;}
	.st6{fill:#343434;}
	.st7{fill:#C7B29A;}
	.st8{fill:#754D24;}
	.st9{fill:#412413;}
	.st10{fill:#1B1B1B;}
	.st11{fill:#9E1460;}
	.st12{fill:#E7267A;}
	.st13{fill:#998675;}
	.st14{fill:#676767;}
	.st15{fill:#BEC1A5;}
	.st16{fill:#8D7968;}
	.st17{fill:#A6A184;}
	.st18{fill:#5B4841;}
	.st19{fill:#C1A07F;}
	.st20{fill:#72403F;}
	.st21{fill:#AA8767;}
	.st22{fill:#D6B394;}
	.st23{fill:#A34F4D;}
	.st24{fill:#B47B61;}
	.st25{fill:#E5C292;}
	.st26{fill:#B4AFA8;}
	.st27{fill:#9E9A98;}
	.st28{fill:#F39323;}
	.st29{fill:#F9B03D;}
	.st30{fill:#50B162;}
	.st31{fill:#106B40;}
	.st32{fill:#8C633A;}
	.st33{fill:#231F20;}
	.st34{fill:#2C2F32;}
	.st35{fill:#E52328;}
	.st36{fill:#C2C3C3;}
	.st37{fill:#2DABE3;}
	.st38{fill:#F9EA31;}
	.st39{fill:#E52629;}
	.st40{fill:#746458;}
	.st41{fill:#0D71B9;}
	.st42{fill:#E52521;}
	.st43{fill:#F6D9A7;}
	.st44{fill:#F4A5A6;}
	.st45{fill:#6E6F70;}
	.st46{fill:#929497;}
	.st47{fill:#F29A26;}
	.st48{fill:#E0C399;}
	.st49{fill:#F9CBCC;}
	.st50{fill:#EBDA8C;}
	.st51{fill:#30358C;}
	.st52{fill:#F6DEB8;}
	.st53{fill:#FFFFFF;}
	.st54{fill:#959FA1;}
	.st55{fill:#6A737A;}
	.st56{fill:#6CC0A9;}
	.st57{fill:#2C7179;}
	.st58{fill:#F2F2F2;}
	.st59{fill:#D83747;}
	.st60{fill:#C92C3F;}
	.st61{fill:#E67525;}
	.st62{fill:#FFD471;}
	.st63{fill:#F0832C;}
	.st64{fill:#90CDBC;}
	.st65{fill:#1E1B3C;}
	.st66{fill:#3C3C3B;}
	.st67{fill:#E94E1B;}
	.st68{fill:#BE1622;}
	.st69{fill:#665F4A;}
	.st70{fill:#3A3320;}
	.st71{fill:#13110C;}
	.st72{fill:#EDECED;}
	.st73{fill:#24211E;}
	.st74{fill:#DBD9DA;}
	.st75{fill:#D01419;}
	.st76{fill:#E1E0E0;}
	.st77{fill:#ECECEC;}
	.st78{fill:#F8F8F9;}
	.st79{fill:#6A6621;}
	.st80{fill:#89454C;}
	.st81{fill:#CBC135;}
	.st82{fill:#F8C8CB;}
	.st83{fill:#C45853;}
	.st84{fill:#729BA5;}
	.st85{fill:#F8AB00;}
	.st86{fill:#3B3835;}
	.st87{fill:#FAD3D7;}
	.st88{fill:#ECBABB;}
	.st89{fill:#F8CFB4;}
	.st90{fill:#844C16;}
	.st91{fill:#D49F61;}
	.st92{fill:#55514F;}
	.st93{fill:#B57D44;}
	.st94{fill:#FCE1E4;}
	.st95{fill:#D5D4D4;}
	.st96{fill:#B92932;}
	.st97{fill:#97C01E;}
	.st98{fill:#00AED3;}
	.st99{fill:#FFCE00;}
	.st100{fill:#E30613;}
	.st101{fill:#F28E36;}
	.st102{fill:#9B6228;}
	.st103{fill:#F6A753;}
	.st104{fill:#CB3749;}
	.st105{fill:#E4E1E1;}
	.st106{fill:#FDEA00;}
	.st107{fill:#53BFCC;}
	.st108{fill:#C2171F;}
	.st109{fill:#EA5139;}
	.st110{fill:#0098B0;}
	.st111{fill:#F28B00;}
	.st112{fill:#898584;}
	.st113{fill:#FAB84F;}
	.st114{fill:#E74310;}
	.st115{fill:#CC5E16;}
	.st116{fill:#00A33A;}
	.st117{fill:#F18600;}
	.st118{fill:#2C2523;}
	.st119{fill:#006633;}
	.st120{fill:#063141;}
	.st121{fill:#1488A9;}
	.st122{fill:#5CBCB8;}
	.st123{fill:#00472A;}
	.st124{fill:#ECC876;}
	.st125{fill:#EBA700;}
	.st126{fill:#F4E3BC;}
	.st127{fill:#BEBBBB;}
	.st128{fill:#A29F9D;}
	.st129{fill:#72C4BE;}
	.st130{fill:#DACCA3;}
	.st131{fill:#AAC5DD;}
	.st132{fill:#1B6DA2;}
	.st133{fill:#F9B233;}
	.st134{fill:#F39200;}
	.st135{fill:#5E5957;}
	.st136{fill:#BACFDD;}
	.st137{fill:#DBC6AF;}
	.st138{fill:#B17F4A;}
	.st139{fill:#467A97;}
	.st140{fill:#95C11F;}
	.st141{fill:#1D71B8;}
	.st142{fill:#2FAC66;}
	.st143{fill:#00A19A;}
	.st144{fill:#0B3958;}
	.st145{fill:#3AAA35;}
	.st146{fill:#1B4B64;}
	.st147{fill:none;}
	.st148{fill:#EBD53E;}
	.st149{fill:#EFF0F1;}
	.st150{fill:#F1BE00;}
	.st151{fill:#DFA600;}
	.st152{fill:#DAEEEE;}
	.st153{fill:#E9E7EA;}
	.st154{fill:#DE0B15;}
	.st155{fill:#AA1918;}
	.st156{fill:#76232F;}
	.st157{fill:#DC0C1F;}
	.st158{fill:#DC3015;}
	.st159{fill:#AA7F47;}
	.st160{fill:#DAAC71;}
	.st161{fill:#342D45;}
	.st162{fill:#F6F5F9;}
	.st163{fill:#1B1814;}
	.st164{fill:#E03D13;}
	.st165{fill:#BF2B17;}
	.st166{fill:#F5F0EF;}
	.st167{fill:#F19500;}
	.st168{fill:#D8870D;}
	.st169{fill:#31AD71;}
	.st170{fill:#2F7C55;}
	.st171{fill:#1A1814;}
	.st172{fill:#4B4845;}
	.st173{fill:#FAEEF0;}
	.st174{fill:#D19B09;}
	.st175{fill:#F1D7B5;}
	.st176{fill:#FCFCFD;}
	.st177{fill:#93BEC8;}
	.st178{fill:#D8D3D2;}
	.st179{fill:#4D4843;}
	.st180{fill:#4EABB8;}
	.st181{fill:#383835;}
	.st182{fill:#D5DADB;}
	.st183{fill:#9EBABB;}
	.st184{fill:#B4181C;}
	.st185{fill:#DD6A10;}
	.st186{fill:#F0F0F1;}
	.st187{fill:#753811;}
	.st188{fill:#DB0D1B;}
	.st189{fill:#DA213C;}
	.st190{fill:#BCDBB6;}
	.st191{fill:#9A9999;}
	.st192{fill:#4DA354;}
	.st193{fill:#DBBC9A;}
	.st194{fill:#A48A7B;}
	.st195{fill:#C5C2C2;}
	.st196{fill:#CC1417;}
	.st197{fill:#44403D;}
	.st198{fill:#F8D000;}
	.st199{fill:#974493;}
	.st200{fill:#F0811A;}
	.st201{fill:#58B034;}
	.st202{fill:#5BC4E9;}
	.st203{fill:#F8D71A;}
	.st204{fill:#E52921;}
	.st205{fill:#DDAE76;}
	.st206{fill:#F9DCBB;}
	.st207{fill:#CC6F22;}
	.st208{fill:#9CCDC5;}
	.st209{fill:#49998B;}
	.st210{fill:#9F3148;}
	.st211{fill:#DDA519;}
	.st212{fill:#EDC4A2;}
	.st213{fill:#5F3B17;}
	.st214{fill:#191517;}
	.st215{fill:#D9A67E;}
	.st216{fill:#C47713;}
	.st217{fill:#A91917;}
	.st218{fill:#DBC8CE;}
	.st219{fill:#9C6E80;}
	.st220{fill:#BC738E;}
	.st221{fill:#1E1E1C;}
	.st222{fill:#EAEAEA;}
	.st223{fill:#4E4D4D;}
	.st224{fill:#E7E6E6;}
	.st225{fill:#FED063;}
	.st226{fill:#FCBF0A;}
	.st227{fill:#AA5A9F;}
	.st228{fill:#833081;}
	.st229{fill:#882C87;}
	.st230{fill:#A4B639;}
	.st231{fill:#B9C95E;}
	.st232{fill:#D690BB;}
	.st233{fill:#AB6F97;}
</style>
<g>
	<g>
		<path d="M338.8,94.1c-0.1,2.7-0.2,5.5-0.4,8.3c-0.7,10.3-0.6,12-1,14c-8,28.7-29,7.2-5.3-5c0.3-2.9-0.1,1.6,1.7-18.8
			c0.2-2.4,0.4-4.7,0.6-7c0.1-1.2,0.2-2.3,0.2-3.5c0.1-1.2,0.8-1.9,2-2.1c2.8-0.6-6.8,1.3,22.5-4.3c3.6-0.7,5.2,0.4,5.6,2.3
			c2.2,10.4,5.6,30.5-2.7,37c-8.4,6.6-18.1-9.2-0.7-15.3c-0.3-4.4-0.6-8.7-0.9-12.8c-2,0.5-3.7,1.3-6.5,2.2
			c-3.3,1.1-6.6,2.1-9.8,3.1C342.5,92.8,340.7,93.5,338.8,94.1z"/>
		<path d="M104.4,79.5c0.3,0.5,0.6,1,0.9,1.6c0.7,1.3,0.4,2.6-0.8,3.3c-1.1,0.7-2.4,0.4-3.4-0.7c-0.1-0.1-0.2-0.2-0.2-0.3
			c-2.4-3.4-1.9-6.4,1.5-8.7c5-3.4,10.4-1.9,13.6,1.9c2.4,2.8,2.5,6.1,1,9.4c-0.2,0.5-0.5,1-0.8,1.4c-3.7,4.8-8.4,7.7-14.6,7.9
			c-7.5,0.3-14.1-6.1-13.9-13.7c0.1-2.3,0.7-4.4,1.9-6.4c2.1-3.7,5-6.7,8.6-9c1.1-0.7,2.2-1.3,3.5-1.2c0.7,0,1.5,0.1,2.2,0.4
			c1.2,0.4,1.8,1.6,1.6,2.8c-0.3,1.2-1.3,2.1-2.6,1.9c-1.2-0.2-2.1,0.3-3,0.9c-2.6,1.9-4.8,4.2-6.3,7.1c-2.2,4.2-0.7,9.5,4.5,11.8
			c1.9,0.8,4.1,0.8,6.1,0.2c2.9-0.9,5.4-2.4,7.4-4.8c3.1-3.8,0.4-6.7-2.8-7.3C107.3,77.5,105.9,78,104.4,79.5z"/>
		<path d="M80,184.5c0.1-0.8,0.2-1.8,0.2-2.9c0.2-4.3,0.5-8.7,0.6-13c0.1-3.5,0-6.9,0-10.4c0-0.4,0-0.7,0-1.1c-0.2-2.4,1-4.1,3-5.2
			c1.4-0.8,2.8-1.4,4.3-2.1c2.8-1.3,5.7-2.5,8.6-3.7c0.3-0.1,0.6-0.2,0.9-0.3c1.2-0.3,2.4,0.3,2.8,1.3c0.5,1,0.2,2.3-0.8,3
			c-0.8,0.5-1.7,0.9-2.5,1.3c-2.8,1.2-5.6,2.3-8.4,3.5c-0.5,0.2-1,0.5-1.6,0.7c-1.1,0.4-1.3,1.1-1.3,2.2c0,4.5,0.1,9,0,13.5
			c-0.2,5-0.5,9.9-0.9,14.9c-0.4,5-2.6,9.3-5.8,13.2c-2.5,3-5.9,4.5-9.8,4.7c-2,0.1-3.7-1.2-4.4-2.9c-0.7-1.9-0.7-3.7,0.2-5.5
			c2.4-4.5,5.7-8.2,10.5-10.2C76.7,185,78.3,184.9,80,184.5z"/>
		<path d="M354.3,194.4c0.3,0.5,0.6,1,0.9,1.6c0.7,1.3,0.4,2.6-0.8,3.3c-1.1,0.7-2.4,0.4-3.4-0.7c-0.1-0.1-0.2-0.2-0.2-0.3
			c-2.4-3.4-1.9-6.4,1.5-8.7c5-3.4,10.4-1.9,13.6,1.9c2.4,2.8,2.5,6.1,1,9.4c-0.2,0.5-0.5,1-0.8,1.4c-3.7,4.8-8.4,7.7-14.6,7.9
			c-9.7,0.4-17.6-10.3-12-20.2c2.1-3.7,5-6.7,8.6-9c1.1-0.7,2.2-1.3,3.5-1.2c0.7,0,1.5,0.1,2.2,0.4c1.2,0.4,1.8,1.6,1.6,2.8
			c-0.3,1.2-1.3,2.1-2.6,1.9c-1.2-0.2-2.1,0.3-3,0.9c-2.6,1.9-4.8,4.2-6.3,7.1c-2.2,4.2-0.7,9.5,4.5,11.8c1.9,0.8,4.1,0.8,6.1,0.2
			c2.9-0.9,5.4-2.4,7.4-4.8c3.1-3.8,0.4-6.7-2.8-7.3C357.2,192.4,355.8,192.9,354.3,194.4z"/>
		<path d="M216.9,263.5c3.6,6.6-1.9,8.2-4.4,4.8c-11.2-16,30-18.5,20,3.2c-7.7,16.8-36.8,15-36.3-5.5c0.1-2.9,0.9-5.5,2.3-8
			c2.6-4.6,6.2-8.3,10.7-11.2c9.2-5.9,11.9,6,5.9,4.8c-3.7-0.7-9.7,6.4-11.5,10c-4.4,8.3,3.5,17.6,13.2,14.8
			c10.5-3.1,15.1-13.4,5.7-15C220.4,261.1,218.7,261.7,216.9,263.5z"/>
	</g>
	<g>
		<path d="M149.2,332.2c-2.6-0.4-5.2-0.7-7.6-1.3c-4.7-1.1-8.6-3.6-11.6-7.5c-11.9-15.5,12.8-28.5,2.3-51.2
			c-0.3-0.6-0.7-0.9-1.4-1.1c-3.5-0.9-1.5-6.6,1.8-5.1c30.1,13.7-27.1,53.9,15.6,61.1c0.6-8.5,2.1-15.7,10.6-22.9
			c21.5-18.3,28.4,22.6-3.7,27.4c-0.3,0-0.6,0.1-1,0.2c0.7,2.3,1.8,4.2,3.6,5.6c1.7,1.3,3.5,2.1,5.6,2.7c2.9,0.7,5.9,0.9,8.9,0.8
			c6.6-0.2,13.2-0.4,19.9-0.1c5.4,0.2,10.8,0.4,16.1,1.6c4.5,1,8.9,2.4,12.7,5c2.8,1.9,5.2,4.3,6.9,7.3c1.5,2.6,3,5.3,4.4,7.9
			c0.3,0.5,0.5,1.2,0.6,1.8c0.2,1.1-0.4,2.1-1.4,2.5c-1,0.4-2.1,0.2-2.8-0.7c-0.2-0.2-0.3-0.5-0.5-0.8c-1.3-2.5-2.7-4.9-4-7.4
			c-2.4-4.6-6.3-7.5-11.1-9.2c-4.5-1.7-9.3-2.4-14-2.7c-4.1-0.3-8.3-0.5-12.4-0.6c-4.2-0.1-8.5,0.1-12.7,0.2
			c-3.2,0.1-6.5,0.2-9.7-0.4c-2.6-0.5-5.1-1.3-7.3-2.6c-3.6-2-6-5.1-7.3-9C149.5,333.2,149.3,332.7,149.2,332.2z M153.4,326.9
			c23.4-2.6,23.8-32.2,8.3-18.6C156,313.3,153.1,320.3,153.4,326.9z"/>
		<path d="M300.4,196.6c-2.8,0-5.6-0.5-8.6,0.3c-7.7-15.1-26.9-30.5-34.7,49.5c-0.6,5.7,2,11.4,6.9,14.5c5.1,3.2,12.9,4,24-5.1
			c0.9,2.5,30.5,16.2,33.6,2.5c8.5-4.2,7.8-7.2,10.6-7.1c12.8,0.5,11.7-20.5,5.1-22c-1.2-0.3-4.8-14-9.3-12c0.4-11.3,1-9.6-8.5-13
			c20.8-183.2-225-185-204.1,0c-9.5,3.4-8.9,1.7-8.5,13c-4.5-2-8.1,11.7-9.3,12c-6.6,1.5-7.7,22.5,5.1,22c2.8-0.1,2.1,2.8,10.6,7.1
			c3.1,13.7,32.6,0,33.6-2.5c11.1,9.2,18.9,8.3,24,5.1c4.9-3,7.4-8.8,6.9-14.5c-7.8-79.8-27-64.6-34.7-49.5c-3-0.7-5.8-0.3-8.6-0.3
			C103.9,48,331.4,45.9,300.4,196.6z M314.8,260.5c-31.5-3-26.4-6.5-22.2-43.5c0.6-5.3,0.8-10.6,2.2-15.8c0.1,0,26.4,6,29,9.9
			C327.2,216,318.8,260.9,314.8,260.5z M111.1,211c2.6-3.8,28.8-9.9,29-9.9c1.4,5.2,1.6,10.5,2.2,15.8c4.2,37,9.3,40.6-22.2,43.5
			C116.1,260.9,107.7,216,111.1,211z M321.1,255.5c4.9-22.9,3.4-13.4,5.9-36.7C330.1,219.4,345.3,239.3,321.1,255.5z M108,218.8
			c2.5,23.3,1,13.8,5.9,36.7C89.4,239.2,105.9,219.2,108,218.8z M332,248.7c3.6-4.8,5.3-9.4,4.5-17.1
			C340.4,233.5,340.6,248.3,332,248.7z M98.5,231.6c-0.8,7.7,0.8,12.3,4.5,17.1C94.4,248.3,94.4,233.5,98.5,231.6z"/>
	</g>
</g>
</svg>
